<?xml version="1.0" encoding="UTF-8"?>
<svg width="65px" height="60px" viewBox="0 0 65 60" version="1.1" xmlns="http://www.w3.org/2000/svg" xmlns:xlink="http://www.w3.org/1999/xlink">
    <title>Group 11</title>
    <g id="Page-1" stroke="none" stroke-width="1" fill="none" fill-rule="evenodd">
        <g id="Desktop-HD-Copy" transform="translate(-266.000000, -3935.000000)">
            <g id="Group-11" transform="translate(266.000000, 3935.000000)">
                <rect id="Rectangle" fill="#FFFFFF" x="0" y="0" width="65" height="60" rx="10"></rect>
                <g id="Group" transform="translate(15.000000, 14.000000)">
                    <path d="M11.5642663,-0.527147678 L12.6023672,-0.544540893 C14.2054469,-0.571400236 15.5267736,0.706378848 15.553633,2.30945857 C15.5541803,2.34212386 15.5541761,2.37479607 15.5536205,2.40746122 L15.1043332,28.8227634 C15.0777159,30.3876999 13.8152895,31.6498061 12.2503462,31.6760265 L11.2122453,31.6934197 C9.60916555,31.720279 8.28783886,30.4424999 8.26097952,28.8394202 C8.26043222,28.8067549 8.26043636,28.7740827 8.26099195,28.7414176 L8.71027923,2.32611543 C8.73689661,0.761178848 9.99932298,-0.500927304 11.5642663,-0.527147678 Z" id="Rectangle" fill="#0D2A58" transform="translate(11.907306, 15.574439) rotate(33.000000) translate(-11.907306, -15.574439) "></path>
                    <path d="M19.9181399,6.30204305 L20.9562409,6.28464983 C22.5593206,6.25779049 23.8806473,7.53556957 23.9075066,9.1386493 C23.9080539,9.17131459 23.9080498,9.20398679 23.9074942,9.23665194 L23.585668,28.1580349 C23.5590506,29.7229715 22.2966242,30.9850777 20.7316809,31.011298 L19.69358,31.0286913 C18.0905003,31.0555506 16.7691736,29.7777715 16.7423143,28.1746918 C16.741767,28.1420265 16.7417711,28.1093543 16.7423267,28.0766891 L17.0641529,9.15530615 C17.0907703,7.59036957 18.3531966,6.32826342 19.9181399,6.30204305 Z" id="Rectangle-Copy" fill="#2F40CD" transform="translate(20.324910, 18.656671) rotate(33.000000) translate(-20.324910, -18.656671) "></path>
                    <path d="M28.254535,15.7265165 L29.2926359,15.7091232 C30.8957157,15.6822639 32.2170423,16.960043 32.2439017,18.5631227 C32.244449,18.595788 32.2444448,18.6284602 32.2438893,18.6611254 L32.1005085,27.0910215 C32.0738912,28.6559581 30.8114648,29.9180643 29.2465215,29.9442846 L28.2084206,29.9616779 C26.6053408,29.9885372 25.2840141,28.7107581 25.2571548,27.1076784 C25.2566075,27.0750131 25.2566116,27.0423409 25.2571672,27.0096758 L25.400548,18.5797796 C25.4271653,17.014843 26.6895917,15.7527368 28.254535,15.7265165 Z" id="Rectangle-Copy-2" fill="#0373EA" transform="translate(28.750528, 22.835401) rotate(33.000000) translate(-28.750528, -22.835401) "></path>
                </g>
            </g>
        </g>
    </g>
</svg>