<?xml version="1.0" encoding="UTF-8"?>
<svg width="50px" height="50px" viewBox="0 0 50 50" version="1.1" xmlns="http://www.w3.org/2000/svg" xmlns:xlink="http://www.w3.org/1999/xlink">
    <title>booking</title>
    <g id="Page-1" stroke="none" stroke-width="1" fill="none" fill-rule="evenodd">
        <g id="Desktop-HD-Copy-2" transform="translate(-1076.000000, -9355.000000)" fill="#000000" fill-rule="nonzero">
            <g id="Group-9" transform="translate(558.000000, 9355.000000)">
                <g id="booking" transform="translate(518.000000, 0.000000)">
                    <path d="M39.7725586,11.0731445 L42.9616211,8.14179688 C43.3585938,7.77685547 43.384668,7.15908203 43.0197266,6.76191406 C42.6548828,6.36513672 42.0371094,6.33876953 41.6398438,6.70380859 L39.074707,9.06162109 L39.074707,7.32421875 C39.074707,6.78496094 38.6374023,6.34765625 38.0981445,6.34765625 C37.5588867,6.34765625 37.121582,6.78496094 37.121582,7.32421875 L37.121582,15.1367188 C37.121582,15.6759766 37.5588867,16.1133789 38.0981445,16.1133789 C38.6374023,16.1133789 39.074707,15.6759766 39.074707,15.1367188 L39.074707,13.1137695 L41.9,15.8395508 C42.0894531,16.0224609 42.3338867,16.1133789 42.5779297,16.1133789 C42.8336914,16.1133789 43.0891602,16.0135742 43.2807617,15.8148438 C43.6552734,15.4266602 43.6442383,14.8083984 43.2560547,14.4339844 L39.7725586,11.0731445 Z" id="Path"></path>
                    <path d="M12.0188477,10.628418 C12.3008789,10.1942383 12.4654297,9.67705078 12.4654297,9.121875 C12.4654297,7.5921875 11.2208984,6.34765625 9.69121094,6.34765625 L7.421875,6.34765625 C6.88251953,6.34765625 6.4453125,6.78496094 6.4453125,7.32421875 L6.4453125,15.1367188 C6.4453125,15.3964844 6.54882812,15.6455078 6.73291016,15.8288086 C6.91591797,16.0110352 7.16367187,16.1132812 7.421875,16.1132812 L7.42617187,16.1132812 C7.42617187,16.1132812 9.5125,16.1040039 10.0875,16.1040039 C11.7855469,16.1040039 13.1669922,14.7225586 13.1669922,13.0245117 C13.1669922,12.0573242 12.718457,11.193457 12.0188477,10.628418 L12.0188477,10.628418 Z M8.3984375,8.30078125 L9.69121094,8.30078125 C10.1439453,8.30078125 10.5123047,8.66904297 10.5123047,9.121875 C10.5123047,9.57470703 10.144043,9.94296875 9.69121094,9.94296875 C9.52431641,9.94296875 9.21005859,9.94384766 8.86738281,9.94501953 L8.3984375,9.94501953 L8.3984375,8.30078125 Z M10.0875,14.1508789 C9.7765625,14.1508789 9.02519531,14.1535156 8.3984375,14.1560547 L8.3984375,11.9 C8.55517578,11.8994141 8.71689453,11.8988281 8.87294922,11.8982422 L10.0875977,11.8982422 C10.7086914,11.8982422 11.2139648,12.4035156 11.2139648,13.0245117 C11.2138672,13.6456055 10.7085937,14.1508789 10.0875,14.1508789 L10.0875,14.1508789 Z" id="Shape"></path>
                    <path d="M30.7643555,6.34765625 C28.0719727,6.34765625 25.881543,8.53808594 25.881543,11.2304688 C25.881543,13.9228516 28.0719727,16.1132812 30.7643555,16.1132812 C33.4567383,16.1132812 35.647168,13.9228516 35.647168,11.2304688 C35.647168,8.53808594 33.4568359,6.34765625 30.7643555,6.34765625 Z M30.7643555,14.1601562 C29.1489258,14.1601562 27.834668,12.8458984 27.834668,11.2304688 C27.834668,9.61503906 29.1489258,8.30078125 30.7643555,8.30078125 C32.3797852,8.30078125 33.694043,9.61503906 33.694043,11.2304688 C33.694043,12.8458984 32.3797852,14.1601562 30.7643555,14.1601562 Z" id="Shape"></path>
                    <path d="M19.5243164,6.34765625 C16.8319336,6.34765625 14.6415039,8.53808594 14.6415039,11.2304688 C14.6415039,13.9228516 16.8319336,16.1132812 19.5243164,16.1132812 C22.2166992,16.1132812 24.4071289,13.9228516 24.4071289,11.2304688 C24.4071289,8.53808594 22.2166992,6.34765625 19.5243164,6.34765625 Z M19.5243164,14.1601562 C17.9088867,14.1601562 16.5946289,12.8458984 16.5946289,11.2304688 C16.5946289,9.61503906 17.9088867,8.30078125 19.5243164,8.30078125 C21.1397461,8.30078125 22.4540039,9.61503906 22.4540039,11.2304688 C22.4540039,12.8458984 21.1397461,14.1601562 19.5243164,14.1601562 Z" id="Shape"></path>
                    <path d="M44.6289062,0 L5.37109375,0 C2.40947266,0 0,2.40947266 0,5.37109375 L0,17.0898438 C0,20.0514648 2.40947266,22.4609375 5.37109375,22.4609375 L20.6054688,22.4609375 L20.6054688,29.7431641 C20.147168,29.5806641 19.6540039,29.4921875 19.140625,29.4921875 C16.7174805,29.4921875 14.7460938,31.4635742 14.7460938,33.8867188 L14.7460938,42.2146484 C14.7460938,45.4668945 16.553125,48.3908203 19.4621094,49.8453125 C19.6655273,49.9470703 19.8898438,50 20.1171875,50 L35.7421875,50 C35.9696289,50 36.1939453,49.9470703 36.3972656,49.8453125 C39.30625,48.3908203 41.1132812,45.4668945 41.1132812,42.2146484 L41.1132812,38.0230469 C41.1132812,34.9072266 38.8825195,32.2739258 35.8091797,31.7618164 L29.3945312,30.6926758 L29.3945312,22.4609375 L44.6289062,22.4609375 C47.5905273,22.4609375 50,20.0514648 50,17.0898438 L50,5.37109375 C50,2.40947266 47.5905273,0 44.6289062,0 Z M47.0703125,17.0898438 C47.0703125,18.4360352 45.9750977,19.53125 44.6289062,19.53125 L28.6519531,19.53125 C27.8625977,18.3543945 26.5204102,17.578125 25,17.578125 C23.4795898,17.578125 22.1374023,18.3543945 21.3480469,19.53125 L5.37109375,19.53125 C4.02490234,19.53125 2.9296875,18.4360352 2.9296875,17.0898438 L2.9296875,5.37109375 C2.9296875,4.02490234 4.02490234,2.9296875 5.37109375,2.9296875 L44.6289062,2.9296875 C45.9750977,2.9296875 47.0703125,4.02490234 47.0703125,5.37109375 L47.0703125,17.0898438 Z" id="Shape"></path>
                </g>
            </g>
        </g>
    </g>
</svg>