<?xml version="1.0" encoding="UTF-8"?>
<svg width="49.2322835px" height="49px" viewBox="0 0 49.2322835 49" version="1.1" xmlns="http://www.w3.org/2000/svg" xmlns:xlink="http://www.w3.org/1999/xlink">
    <title>Group 14</title>
    <g id="Page-1" stroke="none" stroke-width="1" fill="none" fill-rule="evenodd">
        <g id="Desktop-HD-Copy" transform="translate(-653.255906, -5782.000000)">
            <g id="Group-2" transform="translate(568.000000, 5782.000000)">
                <g id="Group-14" transform="translate(85.255906, 0.000000)">
                    <ellipse id="Oval-Copy-4" fill="#000000" cx="24.6161417" cy="24.5" rx="24.6161417" ry="24.5"></ellipse>
                    <path d="M29.5733924,35.0270325 C29.5934055,35.0210569 29.612418,35.0130894 29.6324311,35.0061179 C41.8554462,30.1728455 38.474229,11.9512195 25.2165354,11.9512195 C18.5631726,11.9512195 13.2086614,17.349187 13.2086614,23.902439 C13.2086614,32.1955894 21.6481955,38.113435 29.5733924,35.0270325 Z M18.4931266,31.9286789 C19.3456857,30.5025 22.1044948,26.4789228 26.8135827,25.0905894 C27.7982283,27.5893902 28.4886811,30.5044919 28.5567257,33.81 C24.9883858,35.004126 21.224918,34.2004065 18.4931266,31.9286789 Z M30.0326936,33.1865447 C29.9016076,30.0105081 29.2501804,27.1940041 28.3215715,24.7539634 C30.4049377,24.4302846 32.816519,24.6464024 35.5513123,25.7369512 C34.9699311,28.9846951 32.883563,31.7145528 30.0326936,33.1865447 L30.0326936,33.1865447 Z M35.7084154,24.1922561 C32.6964403,23.0658537 30.0416995,22.9254268 27.7441929,23.3616463 C27.38896,22.5648984 27.0157152,21.7990244 26.620456,21.0939024 C30.1457677,19.692622 32.2291339,17.9845935 33.1617454,17.0802846 C34.8078248,18.9765447 35.7854659,21.4315244 35.7084154,24.1922561 L35.7084154,24.1922561 Z M32.0960466,16.016626 C31.2474902,16.8203455 29.2491798,18.4437195 25.831939,19.7713008 C24.1568406,17.134065 22.365666,15.2736585 21.2309219,14.2319106 C24.8613025,12.7439837 29.0480479,13.3793902 32.0960466,16.016626 Z M19.795981,14.9619309 C20.6525427,15.7118699 22.5327756,17.5125203 24.3469652,20.2971545 C21.8553314,21.0958943 18.7312828,21.6825 14.9317913,21.7651626 C15.5361877,18.8829268 17.3413714,16.4408943 19.795981,14.9619309 Z M14.7416667,23.2650407 C18.9944554,23.1963211 22.4367126,22.5280488 25.1574967,21.6237398 C25.5337434,22.280061 25.8909777,22.9951423 26.2342028,23.7381098 C21.4960958,25.2399797 18.5351542,29.1171545 17.4014108,30.8680081 C15.5722113,28.8363008 14.5635499,26.185122 14.7416667,23.2650407 Z" id="Shape" fill="#FFFFFF" fill-rule="nonzero"></path>
                </g>
            </g>
        </g>
    </g>
</svg>