<?xml version="1.0" encoding="UTF-8"?>
<svg width="49.2322835px" height="49px" viewBox="0 0 49.2322835 49" version="1.1" xmlns="http://www.w3.org/2000/svg" xmlns:xlink="http://www.w3.org/1999/xlink">
    <title>Group 13</title>
    <g id="Page-1" stroke="none" stroke-width="1" fill="none" fill-rule="evenodd">
        <g id="Desktop-HD-Copy" transform="translate(-568.000000, -5782.000000)">
            <g id="Group-13" transform="translate(568.000000, 5782.000000)">
                <ellipse id="Oval" fill="#000000" cx="24.6161417" cy="24.5" rx="24.6161417" ry="24.5"></ellipse>
                <path d="M26.4313946,37.0487805 L22.5854888,37.0487805 C21.9430999,37.0487805 21.4205404,36.5286865 21.4205404,35.8893284 L21.4205404,27.2556227 L19.1767595,27.2556227 C18.5343705,27.2556227 18.011811,26.7353463 18.011811,26.0961706 L18.011811,22.3966102 C18.011811,21.757252 18.5343705,21.2371581 19.1767595,21.2371581 L21.4205404,21.2371581 L21.4205404,19.3845513 C21.4205404,17.5476275 22.000083,15.9847926 23.0963219,14.8652775 C24.1975078,13.7406564 25.7364198,13.1463415 27.5466889,13.1463415 L30.4797646,13.1510828 C31.1210542,13.152177 31.6426975,13.672271 31.6426975,14.310535 L31.6426975,17.7454894 C31.6426975,18.3848475 31.1203213,18.9049414 30.4781156,18.9049414 L28.5033098,18.9056709 C27.9010472,18.9056709 27.7476874,19.0258469 27.71489,19.0626839 C27.6608385,19.1237748 27.5965263,19.2964708 27.5965263,19.7733452 L27.5965263,21.2369757 L30.3297028,21.2369757 C30.5354652,21.2369757 30.7348146,21.2874897 30.9061306,21.3826822 C31.2756967,21.5882032 31.5054616,21.9768148 31.5054616,22.3967926 L31.5039957,26.0963529 C31.5039957,26.7353463 30.9814363,27.2554403 30.3390473,27.2554403 L27.5965263,27.2554403 L27.5965263,35.8893284 C27.5965263,36.5286865 27.0737836,37.0487805 26.4313946,37.0487805 L26.4313946,37.0487805 Z M22.828446,35.6475175 L26.1884374,35.6475175 L26.1884374,26.6283003 C26.1884374,26.2013929 26.5374822,25.8541773 26.9662301,25.8541773 L30.0960901,25.8541773 L30.0973727,22.638421 L26.9660469,22.638421 C26.5372989,22.638421 26.1884374,22.2912054 26.1884374,21.864298 L26.1884374,19.7733452 C26.1884374,19.225897 26.2443212,18.6033161 26.6595104,18.1353775 C27.1611822,17.5696932 27.9518007,17.5044079 28.5029434,17.5044079 L30.2347919,17.5036785 L30.2347919,14.5519811 L27.5455895,14.5476044 C24.6363332,14.5476044 22.828446,16.401123 22.828446,19.3845513 L22.828446,21.864298 C22.828446,22.291023 22.4795845,22.638421 22.0508365,22.638421 L19.4197167,22.638421 L19.4197167,25.8541773 L22.0508365,25.8541773 C22.4795845,25.8541773 22.828446,26.2013929 22.828446,26.6283003 L22.828446,35.6475175 Z" id="Shape" fill="#FFFFFF" fill-rule="nonzero"></path>
            </g>
        </g>
    </g>
</svg>