<?xml version="1.0" encoding="UTF-8"?>
<svg width="50px" height="50.0001953px" viewBox="0 0 50 50.0001953" version="1.1" xmlns="http://www.w3.org/2000/svg" xmlns:xlink="http://www.w3.org/1999/xlink">
    <title>earth-globe</title>
    <g id="Page-1" stroke="none" stroke-width="1" fill="none" fill-rule="evenodd">
        <g id="Desktop-HD-Copy-2" transform="translate(-558.000000, -9355.000000)" fill="#000000" fill-rule="nonzero">
            <g id="earth-globe" transform="translate(558.000000, 9355.000000)">
                <path d="M42.6776081,7.32248954 C37.9557147,2.60040078 31.6776628,0 24.9998047,0 C18.3219466,0 12.04409,2.60049844 7.32229423,7.32248954 C2.60049844,12.044383 0,18.3224349 0,25.000293 C0,31.6781511 2.60040078,37.9561053 7.32229423,42.6779987 C12.04409,47.3997945 18.3220442,50.0001953 24.9998047,50.0001953 C31.6775651,50.0001953 37.955617,47.3997945 42.6776081,42.6779011 C47.3995992,37.9561053 50,31.6780534 50,25.0001953 C50,18.3223372 47.3995992,12.044383 42.6776081,7.32248954 Z M43.9519295,17.4491893 C43.0412814,17.5192091 42.3279974,17.2548526 41.4247712,16.9200856 C40.8046516,16.6902996 40.1017191,16.4297517 39.2775948,16.2659815 C37.0566877,15.8246712 34.7786515,17.0354181 33.4738612,19.3506615 C33.0938793,20.0248829 31.2767823,23.4962832 32.8229798,25.6260767 C33.4026695,26.4245173 34.1782585,26.8894605 34.8016008,27.2628995 C35.6379322,27.764171 36.502584,28.2824347 37.4822753,28.6777487 C37.6908699,28.7619288 37.8974137,28.8381986 38.0970238,28.9118317 C38.6911668,29.1311685 39.3056223,29.3580248 39.5253497,29.6589049 C39.6484947,29.8274603 39.7770108,30.2071492 39.6894128,31.0578362 C39.6307212,31.6268814 39.4029859,32.2478799 39.1618717,32.9053043 C38.5679241,34.5250372 37.7543467,36.7436006 39.6607018,38.9217341 C40.0019141,39.3114817 40.3869742,39.6415611 40.8049446,39.9102145 C36.8386205,44.1122817 31.2205321,46.7393427 24.9998047,46.7393427 C13.0128438,46.7393427 3.26085258,36.9871562 3.26085258,25.000293 C3.26085258,22.690616 3.62423291,20.4644354 4.29454803,18.3744858 C4.64259626,18.8725347 5.03556655,19.3153098 5.41252114,19.7120887 C6.61828757,20.9815273 7.95120293,22.1417857 9.38021242,23.1648366 C9.48616987,23.2407158 9.63704936,23.348724 9.71566295,23.4194274 C9.7693741,23.6595651 9.74779198,24.0053672 9.72347548,24.3992164 C9.67171747,25.2338876 9.6007211,26.3769585 10.2310947,27.5797952 C10.6417408,28.363392 11.2166454,28.9665194 11.7238739,29.498748 C12.2178212,30.0170118 12.6443853,30.4644745 12.7636241,30.8985582 C12.8485853,31.2079344 12.8124524,31.663112 12.7740733,32.1451451 C12.7213388,32.8090149 12.6614752,33.5616545 12.8529799,34.3713257 C13.1104028,35.4595135 13.7247606,36.2658643 14.2667549,36.9772929 C14.6084555,37.4257321 14.9312107,37.8494643 15.0712503,38.2373564 C15.1791609,38.536674 15.2228134,38.9401912 15.2688096,39.3673413 C15.3150012,39.7955656 15.3674428,40.2809191 15.495373,40.7807257 C15.878773,42.2783878 17.1218442,43.7155028 18.7991945,43.7154051 C18.8885503,43.7154051 18.9794687,43.7113036 19.0712659,43.7029051 C20.8081868,43.5442131 22.0008672,41.9922539 22.1836804,39.652401 C22.2132704,39.2736886 22.2912004,38.2753448 22.4843652,38.0551291 C22.544131,38.0313009 22.6897371,37.9956562 22.7977453,37.9692889 C23.2572198,37.8567885 23.9514607,37.6866707 24.5250958,37.0991684 C25.5816429,36.0171329 25.2903332,34.6605846 25.1162114,33.8501322 C25.0638674,33.6060883 25.0043945,33.3293294 25.0078125,33.1850906 C25.0170899,32.7988586 25.8082063,32.1231724 26.106059,31.8687768 L29.0861488,29.3232591 C30.2464072,28.3421029 30.6803933,26.635358 30.1661335,25.0764651 C29.7989445,23.9635702 28.986246,22.9628827 27.815636,22.1824109 C26.3713921,21.2198095 24.8099602,20.9730311 23.5323185,21.5053574 C23.0978441,21.6863152 22.7465732,21.9345583 22.4642479,22.1340708 C22.3787984,22.1945203 22.2662003,22.2741104 22.1745983,22.3322161 C22.1325083,22.285341 22.083973,22.220497 22.0389533,22.1378794 C21.931531,21.9408084 21.8350462,21.684948 21.7327997,21.4140485 C21.5982289,21.0576018 21.4456892,20.6534986 21.2200048,20.2467588 C20.0122852,18.0704807 18.0394259,17.8290736 16.5989906,17.652901 C16.3527983,17.6228227 16.1201802,17.594307 15.8882457,17.558467 C14.6756433,17.3708686 13.4420447,16.8384447 12.4950683,16.1058246 C12.84214,15.9810195 13.2663604,15.8848277 13.4946816,15.8937144 C13.6599166,15.8991832 13.8535697,15.9212536 14.058844,15.9445935 C14.6470299,16.0116836 15.378771,16.0949847 16.167446,15.8738901 C16.9636405,15.6507447 17.5506545,15.1922468 18.0222384,14.823886 C18.1568092,14.7188075 18.2838605,14.6194907 18.4010484,14.5372638 C18.6217524,14.3823804 19.0511486,14.3465404 19.5057403,14.308552 C20.6378736,14.2140204 22.9936445,14.0174376 23.3271419,10.7417412 C23.4921816,9.12103172 22.9001871,7.67004949 22.4245017,6.50412697 C22.0288946,5.53420131 21.6450064,4.57150223 21.3100442,3.57530693 C22.5097559,3.36964207 23.7422802,3.26095024 25,3.26095024 C27.6986434,3.26095024 30.2833214,3.75675296 32.6697565,4.6593932 C32.5982719,4.72970598 32.5265919,4.79992109 32.4552049,4.8699409 C31.730495,5.58068586 30.9810781,6.31574733 30.4653534,6.98342572 C30.2472861,7.26575104 29.8824409,7.73811616 29.7748233,8.41839226 C29.5924984,9.57249833 30.2826378,10.4591229 30.5773655,10.83764 C31.0152579,11.4004352 31.7484639,12.342431 32.9595037,12.644483 C33.2300126,12.7118661 33.4911464,12.7407724 33.7417334,12.7407724 C34.6542369,12.7407724 35.4304118,12.358642 36.032172,12.0622541 C36.3786577,11.891648 36.7369599,11.7151825 36.9511209,11.6979949 C37.1550279,11.6812956 37.5149903,11.7999484 37.8637221,11.9142067 C38.3729038,12.0811995 38.9499568,12.2702628 39.6297446,12.2949699 C40.5239864,12.3270013 41.3170559,12.0030742 41.9394216,11.3914507 C43.3830796,13.1848171 44.5483185,15.2108993 45.3690249,17.4042672 C45.2528135,17.4072946 45.1344537,17.4089547 45.0287892,17.4102243 C44.7088661,17.4143258 44.3466576,17.4189157 43.9519295,17.4491893 Z" id="Shape"></path>
            </g>
        </g>
    </g>
</svg>