<?xml version="1.0" encoding="UTF-8"?>
<svg width="65px" height="60px" viewBox="0 0 65 60" version="1.1" xmlns="http://www.w3.org/2000/svg" xmlns:xlink="http://www.w3.org/1999/xlink">
    <title>Group 7</title>
    <defs>
        <path d="M0,10.4269434 C0,16.1767732 4.68132464,20.8544322 10.4353562,20.8544322 L10.4353562,20.8544322 C16.1896606,20.8544322 20.8707124,16.1767732 20.8707124,10.4269434 L20.8707124,10.4269434 C20.8707124,4.67752261 16.1896606,0 10.4353562,0 L10.4353562,0 C4.68132464,0 0,4.67752261 0,10.4269434 M4.50817976,10.4269434 C4.50817976,7.16134874 7.16716124,4.50450826 10.4353562,4.50450826 L10.4353562,4.50450826 C13.703824,4.50450826 16.3628055,7.16134874 16.3628055,10.4269434 L16.3628055,10.4269434 C16.3628055,13.6928107 13.703824,16.3499239 10.4353562,16.3499239 L10.4353562,16.3499239 C7.16716124,16.3499239 4.50817976,13.6928107 4.50817976,10.4269434" id="path-1"></path>
        <linearGradient x1="101.717295%" y1="-1.6379208%" x2="-13.5441709%" y2="113.446804%" id="linearGradient-3">
            <stop stop-color="#ED1C54" offset="0%"></stop>
            <stop stop-color="#950B4D" offset="100%"></stop>
        </linearGradient>
        <path d="M0,2.82490316 C0,4.38500911 1.24706405,5.64980632 2.785465,5.64980632 L2.785465,5.64980632 C4.32400261,5.64980632 5.57106666,4.38500911 5.57106666,2.82490316 L5.57106666,2.82490316 C5.57106666,1.26465863 4.32400261,0 2.785465,0 L2.785465,0 C1.24706405,0 0,1.26465863 0,2.82490316" id="path-4"></path>
        <linearGradient x1="49.9015909%" y1="50.1010643%" x2="-370.584923%" y2="482.547011%" id="linearGradient-6">
            <stop stop-color="#ED1C54" offset="0%"></stop>
            <stop stop-color="#950B4D" offset="100%"></stop>
        </linearGradient>
        <path d="M0.327713837,1.1063096 C-0.318529123,2.19105507 0.0204925273,3.60468835 1.08518975,4.26343784 L1.08518975,4.26343784 C3.900134,6.00540244 7.13503382,6.92612137 10.4395395,6.92612137 L10.4395395,6.92612137 C13.7388589,6.92612137 16.9711656,6.00540244 19.7857004,4.26343784 L19.7857004,4.26343784 C20.8499882,3.60468835 21.1891463,2.19105507 20.5433128,1.1063096 L20.5433128,1.1063096 C19.8974793,0.0212858864 18.5102747,-0.32429674 17.445987,0.334174505 L17.445987,0.334174505 C15.3367919,1.63970887 12.9139608,2.32948289 10.4395395,2.32948289 L10.4395395,2.32948289 C7.96034136,2.32948289 5.5345077,1.63970887 3.42490317,0.334174505 L3.42490317,0.334174505 C3.05954047,0.107820667 2.65609924,0 2.25757138,0 L2.25757138,0 C1.49559156,0 0.751763864,0.393997584 0.327713837,1.1063096" id="path-7"></path>
        <linearGradient x1="134.134124%" y1="19.6878314%" x2="18.8386261%" y2="58.6900796%" id="linearGradient-9">
            <stop stop-color="#ED1C54" offset="0%"></stop>
            <stop stop-color="#950B4D" offset="100%"></stop>
        </linearGradient>
    </defs>
    <g id="Page-1" stroke="none" stroke-width="1" fill="none" fill-rule="evenodd">
        <g id="Desktop-HD-Copy" transform="translate(-265.000000, -2343.000000)">
            <g id="Group-7" transform="translate(265.000000, 2343.000000)">
                <rect id="Rectangle" fill="#FFFFFF" x="0" y="0" width="65" height="60" rx="10"></rect>
                <g id="Group-10" transform="translate(22.000000, 13.000000)">
                    <g id="Group-21" transform="translate(0.000000, 6.480660)">
                        <mask id="mask-2" fill="white">
                            <use xlink:href="#path-1"></use>
                        </mask>
                        <g id="Clip-20"></g>
                        <path d="M0,10.4269434 C0,16.1767732 4.68132464,20.8544322 10.4353562,20.8544322 L10.4353562,20.8544322 C16.1896606,20.8544322 20.8707124,16.1767732 20.8707124,10.4269434 L20.8707124,10.4269434 C20.8707124,4.67752261 16.1896606,0 10.4353562,0 L10.4353562,0 C4.68132464,0 0,4.67752261 0,10.4269434 M4.50817976,10.4269434 C4.50817976,7.16134874 7.16716124,4.50450826 10.4353562,4.50450826 L10.4353562,4.50450826 C13.703824,4.50450826 16.3628055,7.16134874 16.3628055,10.4269434 L16.3628055,10.4269434 C16.3628055,13.6928107 13.703824,16.3499239 10.4353562,16.3499239 L10.4353562,16.3499239 C7.16716124,16.3499239 4.50817976,13.6928107 4.50817976,10.4269434" id="Fill-19" fill="url(#linearGradient-3)" mask="url(#mask-2)"></path>
                    </g>
                    <g id="Group-27" transform="translate(15.216495, 0.000000)">
                        <mask id="mask-5" fill="white">
                            <use xlink:href="#path-4"></use>
                        </mask>
                        <g id="Clip-26"></g>
                        <path d="M2.785465,5.64980632 C4.32400261,5.64980632 5.57106666,4.38500911 5.57106666,2.82490316 C5.57106666,1.26465863 4.32400261,0 2.785465,0 C1.24706405,0 0,1.26465863 0,2.82490316 C0,4.38500911 1.24706405,5.64980632 2.785465,5.64980632 Z" id="Fill-25" fill="url(#linearGradient-6)" mask="url(#mask-5)"></path>
                    </g>
                    <g id="Group-24" transform="translate(0.000000, 28.073879)">
                        <mask id="mask-8" fill="white">
                            <use xlink:href="#path-7"></use>
                        </mask>
                        <g id="Clip-23"></g>
                        <path d="M0.327713837,1.1063096 C-0.318529123,2.19105507 0.0204925273,3.60468835 1.08518975,4.26343784 L1.08518975,4.26343784 C3.900134,6.00540244 7.13503382,6.92612137 10.4395395,6.92612137 L10.4395395,6.92612137 C13.7388589,6.92612137 16.9711656,6.00540244 19.7857004,4.26343784 L19.7857004,4.26343784 C20.8499882,3.60468835 21.1891463,2.19105507 20.5433128,1.1063096 L20.5433128,1.1063096 C19.8974793,0.0212858864 18.5102747,-0.32429674 17.445987,0.334174505 L17.445987,0.334174505 C15.3367919,1.63970887 12.9139608,2.32948289 10.4395395,2.32948289 L10.4395395,2.32948289 C7.96034136,2.32948289 5.5345077,1.63970887 3.42490317,0.334174505 L3.42490317,0.334174505 C3.05954047,0.107820667 2.65609924,0 2.25757138,0 L2.25757138,0 C1.49559156,0 0.751763864,0.393997584 0.327713837,1.1063096" id="Fill-22" fill="url(#linearGradient-9)" mask="url(#mask-8)"></path>
                    </g>
                </g>
            </g>
        </g>
    </g>
</svg>