<?xml version="1.0" encoding="UTF-8"?>
<svg width="49.2322835px" height="49px" viewBox="0 0 49.2322835 49" version="1.1" xmlns="http://www.w3.org/2000/svg" xmlns:xlink="http://www.w3.org/1999/xlink">
    <title>Group 15</title>
    <g id="Page-1" stroke="none" stroke-width="1" fill="none" fill-rule="evenodd">
        <g id="Desktop-HD-Copy" transform="translate(-738.511811, -5782.000000)">
            <g id="Group-2" transform="translate(568.000000, 5782.000000)">
                <g id="Group-15" transform="translate(170.511811, 0.000000)">
                    <ellipse id="Oval-Copy-5" fill="#000000" cx="24.6161417" cy="24.5" rx="24.6161417" ry="24.5"></ellipse>
                    <g id="instagram" transform="translate(13.208661, 13.146341)" fill="#FFFFFF" fill-rule="nonzero">
                        <path d="M3.51793184,23.902439 L20.4978162,23.902439 C22.4376258,23.902439 24.015748,22.3317626 24.015748,20.4011052 L24.015748,3.50133384 C24.015748,1.57067647 22.4376258,0 20.4978162,0 L3.51793184,0 C1.57812222,0 0,1.57067647 0,3.50133384 L0,20.4011052 C0,22.3317626 1.57812222,23.902439 3.51793184,23.902439 Z M1.40717274,3.50133384 C1.40717274,2.3429759 2.35408272,1.40053354 3.51793184,1.40053354 L20.4978162,1.40053354 C21.6616653,1.40053354 22.6085753,2.3429759 22.6085753,3.50133384 L22.6085753,20.4011052 C22.6085753,21.5594631 21.6616653,22.5019055 20.4978162,22.5019055 L3.51793184,22.5019055 C2.35408272,22.5019055 1.40717274,21.5594631 1.40717274,20.4011052 L1.40717274,3.50133384 Z" id="Shape"></path>
                        <path d="M12.007874,18.2536204 C15.4994214,18.2536204 18.3401513,15.4262933 18.3401513,11.9512195 C18.3401513,8.47614567 15.4994214,5.6488186 12.007874,5.6488186 C8.51632666,5.6488186 5.6755967,8.47614567 5.6755967,11.9512195 C5.6755967,15.4262933 8.51632666,18.2536204 12.007874,18.2536204 Z M12.007874,7.04935213 C14.7236441,7.04935213 16.9329786,9.24826271 16.9329786,11.9512195 C16.9329786,14.6541763 14.7236441,16.8530869 12.007874,16.8530869 C9.2921039,16.8530869 7.08276944,14.6541763 7.08276944,11.9512195 C7.08276944,9.24826271 9.2921039,7.04935213 12.007874,7.04935213 Z" id="Shape"></path>
                        <path d="M19.0437377,7.04935213 C20.2075868,7.04935213 21.1544968,6.10690978 21.1544968,4.94855183 C21.1544968,3.79019388 20.2075868,2.84775152 19.0437377,2.84775152 C17.8798886,2.84775152 16.9329786,3.79019388 16.9329786,4.94855183 C16.9329786,6.10690978 17.8798886,7.04935213 19.0437377,7.04935213 Z M19.0437377,4.24828506 C19.4316263,4.24828506 19.7473241,4.56249331 19.7473241,4.94855183 C19.7473241,5.33461035 19.4316263,5.6488186 19.0437377,5.6488186 C18.6558491,5.6488186 18.3401513,5.33461035 18.3401513,4.94855183 C18.3401513,4.56249331 18.6558491,4.24828506 19.0437377,4.24828506 Z" id="Shape"></path>
                    </g>
                </g>
            </g>
        </g>
    </g>
</svg>