<?xml version="1.0" encoding="UTF-8"?>
<svg width="49.2322835px" height="49px" viewBox="0 0 49.2322835 49" version="1.1" xmlns="http://www.w3.org/2000/svg" xmlns:xlink="http://www.w3.org/1999/xlink">
    <title>Group 6</title>
    <g id="Page-1" stroke="none" stroke-width="1" fill="none" fill-rule="evenodd">
        <g id="Desktop-HD-Copy-5" transform="translate(-824.000000, -11067.000000)">
            <g id="Group-2" transform="translate(568.000000, 11067.000000)">
                <g id="Group-6" transform="translate(256.000000, 0.000000)">
                    <ellipse id="Oval-Copy-6" fill="#000000" cx="24.6161417" cy="24.5" rx="24.6161417" ry="24.5"></ellipse>
                    <g id="linkedin-(1)" transform="translate(13.000000, 13.000000)" fill="#FFFFFF" fill-rule="nonzero">
                        <path d="M0.366234375,23.8064063 L6.5805,23.8064063 L6.5805,7.46517188 L0.366234375,7.46517188 L0.366234375,23.8064063 Z M1.77248437,8.87142188 L5.17425,8.87142188 L5.17425,22.4001094 L1.77248437,22.4001094 L1.77248437,8.87142188 Z" id="Shape"></path>
                        <path d="M3.47339062,1.33226763e-15 C1.558125,1.33226763e-15 0,1.55817188 0,3.47339063 C0,5.38860938 1.558125,6.94682813 3.47339062,6.94682813 C5.38865625,6.94682813 6.94682812,5.38865625 6.94682812,3.47339063 C6.94682812,1.558125 5.38860938,1.33226763e-15 3.47339063,1.33226763e-15 L3.47339062,1.33226763e-15 Z M1.40625,3.47339063 C1.40625,2.33357813 2.33353125,1.40625 3.47339062,1.40625 C4.61325,1.40625 5.54057813,2.33353125 5.54057813,3.47339063 C5.54057813,4.61325 4.61325,5.54057813 3.47339063,5.54057813 C2.33353125,5.54057813 1.40625,4.61320313 1.40625,3.47339063 L1.40625,3.47339063 Z" id="Shape"></path>
                        <path d="M23.9849531,12.5964844 C23.7637969,9.41578125 21.1106719,6.96473438 17.8214062,6.96473438 C16.3501406,6.96473438 14.9612812,7.47623438 13.8669844,8.38382813 L13.8669844,7.46507813 L7.91245312,7.46507813 L7.91245312,23.8063594 L14.1267656,23.8063594 L14.1267656,14.8689375 C14.1267656,13.8616875 14.9461875,13.0422187 15.9534844,13.0422187 C16.9606875,13.0422187 17.7801563,13.8616875 17.7801563,14.8693594 L17.7861563,23.8063594 L24,23.8063594 L24,12.6115781 L23.9849531,12.5964844 Z M12.7205156,22.4001563 L9.31870313,22.4001563 L9.31870313,8.871375 L12.4606875,8.871375 L12.4606875,10.8798281 L13.5859219,10.8862969 L13.7949844,10.5617344 C14.6785781,9.1899375 16.1837812,8.37103125 17.8214062,8.37103125 C20.4387187,8.37103125 22.5343594,10.368 22.5923437,12.9172031 L22.59375,22.4001563 L19.1914687,22.4001563 L19.1864062,14.8689375 C19.1864062,13.0862813 17.7360937,11.6359688 15.9534844,11.6359688 C14.1708281,11.6359688 12.7205156,13.0862813 12.7205156,14.8689375 L12.7205156,22.4001563 Z" id="Shape"></path>
                    </g>
                </g>
            </g>
        </g>
    </g>
</svg>