<?xml version="1.0" encoding="UTF-8"?>
<svg width="12px" height="16px" viewBox="0 0 12 16" version="1.1" xmlns="http://www.w3.org/2000/svg" xmlns:xlink="http://www.w3.org/1999/xlink">
    <title>padlock copy</title>
    <g id="Page-1" stroke="none" stroke-width="1" fill="none" fill-rule="evenodd">
        <g id="Desktop-HD-Copy" transform="translate(-959.000000, -5548.000000)" fill="#FFFFFF" fill-rule="nonzero">
            <g id="padlock-copy" transform="translate(959.000000, 5548.000000)">
                <path d="M10.5,6 L10,6 L10,4 C10,1.794 8.206,0 6,0 C3.794,0 2,1.794 2,4 L2,6 L1.5,6 C0.673333333,6 0,6.67266667 0,7.5 L0,14.5 C0,15.3273333 0.673333333,16 1.5,16 L10.5,16 C11.3266667,16 12,15.3273333 12,14.5 L12,7.5 C12,6.67266667 11.3266667,6 10.5,6 Z M3.33333333,4 C3.33333333,2.52933333 4.52933333,1.33333333 6,1.33333333 C7.47066667,1.33333333 8.66666667,2.52933333 8.66666667,4 L8.66666667,6 L3.33333333,6 L3.33333333,4 Z M6.66666667,11.148 L6.66666667,12.6666667 C6.66666667,13.0346667 6.36866667,13.3333333 6,13.3333333 C5.63133333,13.3333333 5.33333333,13.0346667 5.33333333,12.6666667 L5.33333333,11.148 C4.93666667,10.9166667 4.66666667,10.4913333 4.66666667,10 C4.66666667,9.26466667 5.26466667,8.66666667 6,8.66666667 C6.73533333,8.66666667 7.33333333,9.26466667 7.33333333,10 C7.33333333,10.4913333 7.06333333,10.9166667 6.66666667,11.148 Z" id="Shape"></path>
            </g>
        </g>
    </g>
</svg>