<?xml version="1.0" encoding="UTF-8"?>
<svg width="35px" height="53px" viewBox="0 0 35 53" version="1.1" xmlns="http://www.w3.org/2000/svg" xmlns:xlink="http://www.w3.org/1999/xlink">
    <title>Combined Shape</title>
    <g id="Page-1" stroke="none" stroke-width="1" fill="none" fill-rule="evenodd">
        <g id="Desktop-HD-Copy" transform="translate(-135.000000, -24.000000)" fill="#000000">
            <path d="M153.76,42.4947917 L170,42.4947917 L170,60.76 C170,69.7291043 162.729104,77 153.76,77 L153.76,77 L153.76,77 L153.76,42.4947917 Z M151.24,24 L151.24,24 L151.24,24 L151.24,58.5052083 C142.270896,58.5052083 135,51.2343127 135,42.2652083 L135,40.24 C135,31.2708957 142.270896,24 151.24,24 Z M153.76,24 L170,24 L170,40.0104167 L169.770417,40.0104167 C160.928108,40.0104167 153.76,32.842309 153.76,24 L153.76,24 L153.76,24 Z" id="Combined-Shape"></path>
        </g>
    </g>
</svg>