<?xml version="1.0" encoding="UTF-8"?>
<svg width="50px" height="47.8515812px" viewBox="0 0 50 47.8515812" version="1.1" xmlns="http://www.w3.org/2000/svg" xmlns:xlink="http://www.w3.org/1999/xlink">
    <title>money-bag</title>
    <g id="Page-1" stroke="none" stroke-width="1" fill="none" fill-rule="evenodd">
        <g id="Desktop-HD-Copy-2" transform="translate(-817.000000, -9356.000000)" fill="#000000" fill-rule="nonzero">
            <g id="Group-9" transform="translate(558.000000, 9355.000000)">
                <g id="money-bag" transform="translate(259.000000, 1.000000)">
                    <path d="M34.7315384,27.5789276 C34.5053665,27.4989472 34.2748002,27.4158417 34.0441361,27.3300996 L34.0441361,23.1991431 C34.4679642,23.3452368 34.6873001,23.5578344 34.716304,23.5874243 C35.1601516,24.0889867 35.9263624,24.139182 36.4322218,23.6985571 C36.9405225,23.255686 36.9935498,22.4845924 36.5505811,21.9762917 C36.1334913,21.4976784 35.268843,20.8970926 34.0441361,20.6924051 L34.0441361,20.0195536 C34.0441361,19.3454326 33.4976518,18.7988507 32.8234332,18.7988507 C32.1492145,18.7988507 31.6027302,19.3454326 31.6027302,20.0195536 L31.6027302,20.8277567 C31.5171833,20.8500223 31.4309529,20.8740457 31.3437459,20.9003152 C29.8679648,21.3448464 28.7658165,22.6050025 28.4672814,24.1889867 C28.193551,25.6414279 28.664547,27.0464082 29.6960898,27.8554901 C30.1899374,28.2428924 30.792867,28.5979705 31.6026325,28.967697 L31.6026325,34.3303916 C31.0120076,34.251876 30.5700155,34.0586143 29.8780234,33.60588 C29.3138633,33.2366417 28.5573204,33.3950402 28.1881799,33.9591026 C27.8190393,34.523165 27.9772424,35.2797079 28.5414025,35.6489461 C29.738375,36.4319538 30.5799764,36.701778 31.6026325,36.7862506 L31.6026325,37.5976763 C31.6026325,38.2717973 32.1491168,38.8183793 32.8233355,38.8183793 C33.4975542,38.8183793 34.0440385,38.2717973 34.0440385,37.5976763 L34.0440385,36.6721882 C34.8461868,36.4758991 35.5756789,36.087325 36.1933546,35.5197469 C37.0194287,34.7608603 37.5769482,33.7324425 37.7632763,32.6243371 C38.146577,30.3458218 36.9564404,28.365451 34.7315384,27.5789276 L34.7315384,27.5789276 Z M31.6027302,26.2114474 C31.4581013,26.12092 31.3230427,26.0288302 31.2029256,25.9344943 C30.8958944,25.693674 30.7637655,25.1859592 30.8664998,24.6411351 C30.9440389,24.2299047 31.1762654,23.752561 31.6027302,23.4543188 L31.6027302,26.2114474 Z M35.3558547,32.219552 C35.2370071,32.9264855 34.7925735,33.6721886 34.0441361,34.0759971 L34.0441361,29.9286344 C35.4754836,30.5024624 35.4408156,31.7145716 35.3558547,32.219552 Z" id="Shape"></path>
                    <path d="M49.9433528,33.6846886 C49.5044857,29.7670133 48.2213804,25.9153536 46.2326111,22.5462135 C44.6745058,19.906663 42.7412053,17.6106672 40.4654243,15.6922105 C41.5114203,14.8882067 42.1874944,13.6254139 42.1874944,12.2070547 C42.1874944,10.7400627 41.4642523,9.43967223 40.35644,8.64103952 C42.1436468,6.71144993 43.1640568,4.16359871 43.1640568,1.46486859 C43.1640568,0.92463429 42.8666936,0.428247636 42.3904241,0.173267201 C41.9141546,-0.0815179214 41.336225,-0.0536858938 40.8867134,0.246021098 C38.7108347,1.69660684 35.8987257,1.69660684 33.7228471,0.246021098 C33.2307573,-0.0820062026 32.5897418,-0.0820062026 32.097652,0.246021098 C29.9217734,1.69660684 27.1096644,1.69660684 24.9337858,0.246021098 C24.4842741,-0.0536858938 23.9063445,-0.080541359 23.430075,0.174439076 C22.9538056,0.429419511 22.656247,0.926782727 22.656247,1.46701703 C22.656247,4.16408699 23.676657,6.71154759 25.4638638,8.64094186 C24.3560515,9.43967223 23.6328094,10.7400627 23.6328094,12.2070547 C23.6328094,13.62766 24.3109343,14.8922106 25.3598599,15.6961167 C21.760544,18.7441632 18.9790991,22.7757056 17.3471657,27.3437714 L5.37109304,27.3437714 C4.56210877,27.3437714 3.90624948,27.9996307 3.90624948,28.808615 L3.90624948,33.2031457 L1.46484356,33.2031457 C0.655859288,33.2031457 0,33.8590049 0,34.6679892 L0,40.5273634 C0,41.3363477 0.655859288,41.992207 1.46484356,41.992207 L3.90624948,41.992207 L3.90624948,46.3867377 C3.90624948,47.1957219 4.56210877,47.8515812 5.37109304,47.8515812 L22.9492157,47.8515812 C23.7582,47.8515812 24.4140593,47.1957219 24.4140593,46.3867377 L24.4140593,43.9186716 C24.6457975,43.9359567 24.8785123,43.9453317 25.1117154,43.9453317 L40.7109321,43.9453317 C43.3565372,43.9453317 45.8859314,42.8134959 47.6505796,40.8401564 C49.398138,38.8858597 50.2337824,36.2778523 49.9433528,33.6846886 Z M32.9101519,3.16887227 C35.0615188,4.31184087 37.5389599,4.56115725 39.8327096,3.91701671 C39.3019479,5.48781728 38.2651317,6.86242647 36.8458936,7.81252401 L28.9744102,7.81252401 C27.5552698,6.86252413 26.5187465,5.48840322 25.9878872,3.91711436 C28.2816369,4.56115725 30.7588827,4.31184087 32.9101519,3.16887227 L32.9101519,3.16887227 Z M39.2578073,12.2070547 C39.2578073,13.0147694 38.6006785,13.6718982 37.7929638,13.6718982 L28.02734,13.6718982 C27.2196253,13.6718982 26.5624965,13.0147694 26.5624965,12.2070547 C26.5624965,11.3993399 27.2196253,10.7422111 28.02734,10.7422111 L37.7929638,10.7422111 C38.6006785,10.7422111 39.2578073,11.3993399 39.2578073,12.2070547 Z M2.92968711,39.0625199 L2.92968711,36.1328328 L17.5781227,36.1328328 L17.5781227,39.0625199 L2.92968711,39.0625199 Z M45.4666932,38.8872269 C44.2571231,40.2398635 42.5237249,41.0156446 40.7109321,41.0156446 L25.1117154,41.0156446 C24.8779264,41.0156446 24.6451139,41.0025587 24.4140593,40.9773634 L24.4140593,40.5273634 C24.4140593,39.7183792 23.7582,39.0625199 22.9492157,39.0625199 L20.5078098,39.0625199 L20.5078098,36.1328328 L22.9492157,36.1328328 C23.7582,36.1328328 24.4140593,35.4769735 24.4140593,34.6679892 L24.4140593,28.808615 C24.4140593,27.9996307 23.7582,27.3437714 22.9492157,27.3437714 L20.4814426,27.3437714 C22.2533174,22.9738501 25.2159146,19.2197491 28.9835899,16.6015853 L36.835542,16.6015853 C42.5229436,20.5481669 46.2316345,26.8670137 47.0318297,34.0108604 C47.2325133,35.8023641 46.6767517,37.5341998 45.4666932,38.8872269 Z" id="Shape"></path>
                </g>
            </g>
        </g>
    </g>
</svg>