<?xml version="1.0" encoding="UTF-8"?>
<svg width="20.000254px" height="9.68761278px" viewBox="0 0 20.000254 9.68761278" version="1.1" xmlns="http://www.w3.org/2000/svg" xmlns:xlink="http://www.w3.org/1999/xlink">
    <title>right-arrow copy 2</title>
    <g id="Page-1" stroke="none" stroke-width="1" fill="none" fill-rule="evenodd">
        <g id="Desktop-HD-Copy" transform="translate(-1155.000000, -3164.000000)" fill="#FFFFFF" fill-rule="nonzero">
            <g id="right-arrow-copy-2" transform="translate(1155.000000, 3164.000000)">
                <path d="M19.7711007,4.29079187 C19.7708663,4.2905575 19.770671,4.29028406 19.7703975,4.29004968 L15.6881602,0.227500099 C15.3823362,-0.0768395522 14.8876817,-0.0757067259 14.5832639,0.230156382 C14.2788852,0.535980426 14.2800571,1.0306349 14.5858811,1.33501362 L17.3266958,4.0625469 L0.781259534,4.0625469 C0.349769893,4.0625469 0,4.41231679 0,4.84380644 C0,5.27529608 0.349769893,5.62506597 0.781259534,5.62506597 L17.3266568,5.62506597 L14.5859202,8.35259926 C14.2800961,8.65697797 14.2789243,9.15163244 14.583303,9.45745649 C14.8877207,9.76335866 15.3824143,9.76441336 15.6881993,9.46011277 L19.7704366,5.39756319 C19.770671,5.39732882 19.7708663,5.39705537 19.7711397,5.396821 C20.07712,5.09142664 20.0761434,4.59517059 19.7711007,4.29079187 Z" id="Path"></path>
            </g>
        </g>
    </g>
</svg>