<?xml version="1.0" encoding="UTF-8"?>
<svg width="62px" height="58px" viewBox="0 0 62 58" version="1.1" xmlns="http://www.w3.org/2000/svg" xmlns:xlink="http://www.w3.org/1999/xlink">
    <title>Group 6</title>
    <defs>
        <linearGradient x1="17.6758403%" y1="64.4296864%" x2="83.7837544%" y2="15.0956604%" id="linearGradient-1">
            <stop stop-color="#4FE765" offset="0%"></stop>
            <stop stop-color="#26A9E0" offset="52%"></stop>
            <stop stop-color="#26A9E0" offset="100%"></stop>
        </linearGradient>
    </defs>
    <g id="Page-1" stroke="none" stroke-width="1" fill="none" fill-rule="evenodd">
        <g id="Desktop-HD-Copy" transform="translate(-264.000000, -1556.000000)">
            <g id="Group-3" transform="translate(235.000000, 1537.000000)">
                <g id="Group-6" transform="translate(29.000000, 19.000000)">
                    <rect id="Rectangle-Copy-6" fill="#FFFFFF" x="0" y="0" width="62" height="58" rx="10"></rect>
                    <g id="Sanar_Logo-Final-Copy-2" transform="translate(12.000000, 15.000000)" fill-rule="nonzero">
                        <path d="M14.264594,10.0264509 C10.4231671,10.3649186 8.53946165,5.89602942 5.4344933,4.52542129 C4.49634136,4.1107054 3.42681115,4.06235288 2.45720244,4.39524142 C-1.21583819,5.65798621 0.0405822573,11.4881849 1.07125411,14.8040524 C1.57086165,16.4647756 3.58039421,22.0290355 7.78634954,25.809831 C9.3610385,27.2678456 10.2806865,27.7755471 11.9053362,28.3632163 C14.1017589,29.1573135 16.6590094,29.270756 19.5030716,28.3483386 C20.9241775,27.8871299 22.5636304,27.1506837 24.2752488,25.932572 C26.1274975,24.6140359 27.8650215,23.1076687 30.0540427,20.5654417 C34.4191323,15.6520813 37.9552434,9.18400114 38,3.93775214 C38.0070546,3.07484553 37.8960307,2.31608283 37.6684317,1.77862591 C37.4556359,1.28022296 37.1373674,0.984528666 36.8116973,0.694413514 C35.8679942,-0.142457118 34.6504321,-0.224284468 32.6390491,0.456370312 C29.0252212,1.66518345 24.1716265,4.94385661 20.2265773,7.30941093 C17.711886,8.81763778 16.0428268,9.86837535 14.264594,10.0264509 L14.264594,10.0264509 Z" id="Path" fill="url(#linearGradient-1)"></path>
                        <g id="Group" transform="translate(5.320000, 13.736842)" fill="#FFFFFF">
                            <path d="M2.9277898,1.8808204 L2.09443905,1.7708309 C1.87872658,1.74150037 1.72385609,1.69933773 1.63351497,1.64984246 C1.53948645,1.6040135 1.49339404,1.52885401 1.49339404,1.42986346 C1.49339404,1.19705236 1.74229305,1.07789707 2.23640367,1.07789707 C2.44105397,1.07789707 2.65676644,1.09989497 2.88538479,1.13839129 C3.11400314,1.17872078 3.31865343,1.23188237 3.50671046,1.29420975 C3.56386504,1.31620765 3.61917593,1.33820555 3.66711204,1.36020345 C3.85516907,1.44452873 4.08194372,1.38953398 4.1944092,1.22088342 C4.1944092,1.22088342 4.1944092,1.21905026 4.19625289,1.21905026 C4.27921923,1.09072918 4.31978055,0.966074416 4.31978055,0.848752285 C4.31978055,0.599442759 4.13725461,0.392295873 3.77220273,0.236477419 C3.40715085,0.0806589645 2.92225871,0 2.31752631,0 C1.55239233,0 0.973471673,0.137486871 0.582608047,0.412460614 C0.193588117,0.68376804 0,1.08156339 0,1.60767981 C0,2.44176683 0.494110622,2.9220543 1.48233187,3.0540417 L2.31568262,3.1640312 C2.55536314,3.19336173 2.7268269,3.23735753 2.8300739,3.29235228 C2.9314772,3.34734703 2.98494439,3.42433967 2.98494439,3.52333022 C2.98494439,3.73780974 2.7286706,3.84413292 2.21427932,3.84413292 C1.85475853,3.84413292 1.50814361,3.80380344 1.16705979,3.71581184 C1.02325147,3.68098183 0.896036426,3.64065235 0.781727252,3.59665655 C0.538359334,3.50499864 0.265492274,3.61315498 0.140120923,3.8404666 L0.110621781,3.89362819 C-0.0405613197,4.16860194 0.0866537284,4.50773622 0.381645144,4.62139203 C0.411144286,4.63239098 0.44433082,4.64338993 0.477517355,4.65622204 C0.744853325,4.7460468 1.03800105,4.82120629 1.35880421,4.87620103 C1.68145107,4.93119578 1.99856684,4.95869316 2.31383892,4.95869316 C3.01259984,4.95869316 3.55833396,4.81387365 3.95472867,4.52240149 C4.34927969,4.23092932 4.5483989,3.83130081 4.5483989,3.31984965 C4.5483989,2.50776053 4.00635217,2.02930622 2.92410241,1.8808204 L2.9277898,1.8808204 Z" id="Path"></path>
                            <path d="M13.9383444,0.229144785 C13.582511,0.0788258062 13.18796,0.00183315828 12.756535,0.00183315828 C12.3251101,0.00183315828 11.9287154,0.0788258062 11.5691946,0.229144785 C11.2096738,0.379463765 10.9257446,0.603109075 10.7100321,0.896414401 C10.498007,1.18971973 10.3929163,1.55451822 10.3929163,1.98347726 L10.3929163,4.08977613 C10.3929163,4.2932567 10.4758827,4.48023885 10.6104725,4.6140594 C10.7340001,4.73688101 10.8999328,4.81753997 11.0861462,4.82853892 C11.5249459,4.85786945 11.882623,4.48023885 11.882623,4.04211402 L11.882623,2.32261155 C11.882623,1.68650562 12.1720833,1.36386976 12.7546913,1.36386976 C13.3372994,1.36386976 13.6156975,1.68467246 13.6156975,2.32261155 L13.6156975,4.08794297 C13.6156975,4.29142354 13.6986639,4.47840569 13.8332537,4.61222624 C13.9567814,4.73504785 14.122714,4.81570681 14.3089274,4.82670576 C14.7477271,4.85603629 15.1072479,4.47840569 15.1072479,4.04028086 L15.1072479,1.97981095 C15.1072479,1.55085191 15.0021572,1.18605341 14.7864447,0.892748084 C14.5744196,0.599442759 14.2886467,0.375797448 13.9365007,0.225478469 L13.9383444,0.229144785 Z" id="Path"></path>
                            <path d="M24.2980742,0.229144785 C24.0307382,0.0788258062 23.6656863,0.00183315828 23.2102933,0.00183315828 C22.5613122,0.00183315828 22.0561394,0.166817404 21.6947749,0.496785895 C21.3334105,0.826754386 21.1527282,1.28687712 21.1527282,1.88265356 L21.1527282,4.08977613 C21.1527282,4.2932567 21.2356946,4.48023885 21.3702844,4.6140594 C21.5380608,4.7808768 21.7851161,4.86703524 22.0450773,4.81570681 C22.4009107,4.7460468 22.6424349,4.41241199 22.6424349,4.05127981 L22.6424349,2.20528942 C22.6424349,1.62051192 22.9245204,1.32903976 23.4868478,1.32903976 C23.6269687,1.32903976 23.7799955,1.34737134 23.9403971,1.3840345 C23.9809584,1.39136714 24.0233634,1.40236609 24.0620811,1.41336504 C24.2685751,1.47385926 24.4990371,1.39503345 24.5985967,1.20255183 L24.5985967,1.20255183 C24.6668135,1.06506496 24.7,0.936743883 24.7,0.81208912 C24.7,0.573778543 24.5672539,0.377630606 24.2962305,0.227311627 L24.2980742,0.229144785 Z" id="Path"></path>
                            <path d="M19.6630216,0.509618003 C19.2260655,0.172316879 18.5863029,0.00183315828 17.7382026,0.00183315828 C17.18325,0.00183315828 16.7684183,0.0733263313 16.4992386,0.210813203 C16.2982757,0.311636908 16.0420019,0.478454312 15.9756289,0.709432256 C15.8963499,0.98257284 16.0733448,1.40053293 16.3941479,1.40969872 C16.4937075,1.41153188 16.5914235,1.38220135 16.6836083,1.3492045 C17.0062551,1.23188237 17.3325894,1.18422025 17.6755169,1.18422025 C18.4259013,1.18422025 18.8075465,1.40969872 18.8167649,1.86065566 C18.8167649,1.86798829 18.8112339,1.87532092 18.8038591,1.87348777 C18.6287079,1.84965671 18.3576846,1.84049092 17.9926327,1.84049092 C17.1887811,1.84049092 16.6098604,1.96697884 16.2503396,2.22178784 C15.8908188,2.47659684 15.7119803,2.85789376 15.7119803,3.36934493 C15.7119803,3.92662504 15.9166306,4.33358618 16.3240875,4.58472887 C16.7333881,4.83403839 17.3325894,4.96052632 18.1216914,4.96052632 C18.3115921,4.96052632 18.5217735,4.95869316 18.7485482,4.94769421 C18.9716354,4.94036157 19.192879,4.92569631 19.4049041,4.9128642 C19.6169292,4.89636578 19.8049862,4.87986735 19.97645,4.86153577 C20.1700381,4.83953787 20.3193775,4.67455362 20.3193775,4.47657253 L20.3193775,2.0256399 C20.3193775,1.35653713 20.1018213,0.850585444 19.6648653,0.513284319 L19.6630216,0.509618003 Z M18.8241397,3.85513187 C18.8241397,3.85513187 18.822296,3.86613082 18.8167649,3.86613082 C18.7725162,3.87712977 18.6803314,3.88629556 18.5512727,3.89729451 C18.4129954,3.90462714 18.2673434,3.91012662 18.1124729,3.91012662 C17.5003658,3.91012662 17.1924685,3.73780974 17.1924685,3.39317598 C17.1924685,3.21535963 17.2606852,3.07787276 17.3971188,2.97888221 C17.5317086,2.87989166 17.7640143,2.83039639 18.0921923,2.83039639 C18.197283,2.83039639 18.3189669,2.83589586 18.4535568,2.8432285 C18.5844592,2.85056113 18.7061432,2.86156008 18.8130776,2.87439219 C18.8186086,2.87439219 18.8241397,2.87989166 18.8241397,2.8872243 L18.8241397,3.85329871 L18.8241397,3.85513187 Z" id="Shape"></path>
                            <path d="M8.93086512,0.509618003 C8.49390908,0.172316879 7.85414645,0.00183315828 7.00604613,0.00183315828 C6.45109353,0.00183315828 6.03626185,0.0733263313 5.76708218,0.210813203 C5.56611928,0.311636908 5.30984549,0.478454312 5.24347242,0.709432256 C5.16419348,0.98257284 5.34118833,1.40053293 5.66199149,1.40969872 C5.76155109,1.41153188 5.859267,1.38220135 5.95145182,1.3492045 C6.27409868,1.23188237 6.60043293,1.18422025 6.94336045,1.18422025 C7.69374487,1.18422025 8.07539001,1.40969872 8.08460849,1.86065566 C8.08460849,1.86798829 8.07907741,1.87532092 8.07170262,1.87348777 C7.89655147,1.84965671 7.6255281,1.84049092 7.26047623,1.84049092 C6.45662462,1.84049092 5.87770396,1.96697884 5.51818318,2.22178784 C5.15866239,2.47659684 4.97982384,2.85789376 4.97982384,3.36934493 C4.97982384,3.92662504 5.18447414,4.33358618 5.59193103,4.58472887 C6.00123162,4.83403839 6.60043293,4.96052632 7.38953497,4.96052632 C7.57943569,4.96052632 7.78961708,4.95869316 8.01639173,4.94769421 C8.23947899,4.94036157 8.46072255,4.92569631 8.67274763,4.9128642 C8.88477271,4.89636578 9.07282974,4.87986735 9.2442935,4.86153577 C9.43788162,4.83953787 9.58722102,4.67455362 9.58722102,4.47657253 L9.58722102,2.0256399 C9.58722102,1.35653713 9.36966485,0.850585444 8.93270882,0.513284319 L8.93086512,0.509618003 Z M8.09198328,3.85513187 C8.09198328,3.85513187 8.09013958,3.86613082 8.08460849,3.86613082 C8.04035978,3.87712977 7.94817496,3.88629556 7.81911622,3.89729451 C7.68083899,3.90462714 7.53518698,3.91012662 7.38031649,3.91012662 C6.7682093,3.91012662 6.46031201,3.73780974 6.46031201,3.39317598 C6.46031201,3.21535963 6.52852878,3.07787276 6.6649623,2.97888221 C6.79955214,2.87989166 7.03185788,2.83039639 7.36003583,2.83039639 C7.46512652,2.83039639 7.58681048,2.83589586 7.72140031,2.8432285 C7.85230275,2.85056113 7.97398671,2.86156008 8.0809211,2.87439219 C8.08645219,2.87439219 8.09198328,2.87989166 8.09198328,2.8872243 L8.09198328,3.85329871 L8.09198328,3.85513187 Z" id="Shape"></path>
                        </g>
                    </g>
                </g>
            </g>
        </g>
    </g>
</svg>