<?xml version="1.0" encoding="UTF-8"?>
<svg width="49.2322835px" height="49px" viewBox="0 0 49.2322835 49" version="1.1" xmlns="http://www.w3.org/2000/svg" xmlns:xlink="http://www.w3.org/1999/xlink">
    <title>Group 16</title>
    <g id="Page-1" stroke="none" stroke-width="1" fill="none" fill-rule="evenodd">
        <g id="Desktop-HD-Copy" transform="translate(-823.767717, -5782.000000)">
            <g id="Group-2" transform="translate(568.000000, 5782.000000)">
                <g id="Group-16" transform="translate(255.767717, 0.000000)">
                    <ellipse id="Oval-Copy-6" fill="#000000" cx="24.6161417" cy="24.5" rx="24.6161417" ry="24.5"></ellipse>
                    <g id="twitter" transform="translate(13.208661, 14.341463)" fill="#FFFFFF" fill-rule="nonzero">
                        <path d="M24.015748,2.61267082 C22.5050528,2.68196805 22.5380334,2.67631484 22.3672672,2.69053899 L23.2619579,0.147512935 C23.2619579,0.147512935 20.469233,1.17001185 19.7612492,1.35292008 C17.9018757,-0.310395893 15.1381005,-0.383887397 13.1621954,0.824802223 C11.54413,1.81484083 10.6756405,3.51499372 10.9653203,5.50218303 C7.81622159,5.06725173 5.1629314,3.58155553 3.06811294,1.07700764 L2.40556911,0.285013256 L1.91049352,1.1898892 C1.28477802,2.33329355 1.0770002,3.64064054 1.32527087,4.87103114 C1.42714432,5.37580677 1.60029256,5.85724018 1.84013488,6.30803691 L1.27176899,6.0888388 L1.20434197,7.03401658 C1.13599882,7.99414796 1.45719332,9.11493954 2.06367013,10.0318513 C2.23443641,10.2900747 2.45430715,10.5736463 2.7329933,10.8533883 L2.43928262,10.8085274 L2.79767193,11.8915702 C3.268745,13.3145342 4.24716979,14.4154483 5.51692334,15.0274523 C4.24881881,15.563047 3.22440443,15.9047918 1.54056099,16.4560695 L0,16.9601157 L1.42293016,17.734421 C1.9654612,18.0296637 3.88255084,19.0156904 5.77673724,19.3114802 C9.98726191,19.9687097 14.7278583,19.4334798 17.9192821,16.5727806 C20.6073851,14.1632429 21.4894332,10.7357653 21.3062076,7.16896383 C21.2785405,6.62899251 21.4271365,6.11363991 21.7246949,5.71809862 C22.3207278,4.92610418 24.0120835,2.61795928 24.015748,2.61267082 Z M20.5995064,4.87923738 C20.1053469,5.53591983 19.8578091,6.37459871 19.9021497,7.24044939 C20.0870244,10.8382523 19.1034693,13.6283777 16.9786018,15.5329574 C14.4964444,17.7579456 10.4927814,18.6312731 5.99459249,17.9290004 C5.17997142,17.8018947 4.3380497,17.5172289 3.64124267,17.2329279 C5.05299603,16.7494886 6.14318848,16.3185692 7.90380342,15.4891907 L10.3615919,14.3313799 L7.64802045,14.1585015 C6.34821795,14.0757095 5.26590422,13.448752 4.600612,12.4308121 C4.95387099,12.4103877 5.29448742,12.353491 5.63363805,12.2593926 L8.22169987,11.5419839 L5.6120174,10.9059083 C4.34391292,10.5968061 3.62108787,9.84164866 3.2379631,9.26246969 C2.98639434,8.88188198 2.82204092,8.49199389 2.72346557,8.13256008 C2.98511175,8.20240441 3.29018239,8.25218898 3.78214316,8.30069707 L6.19760647,8.53849599 L4.28381492,7.0526174 C2.90485895,5.98215754 2.35225049,4.37391466 2.75736229,2.82785696 C7.06096558,7.27053897 12.1139617,6.93663576 12.622596,7.05407629 C12.5106451,5.97176297 12.5077135,5.96920989 12.4783974,5.86617586 C11.8270303,3.57444343 13.2545411,2.41079703 13.898396,2.01689697 C15.2432719,1.19426586 17.3780336,1.07026029 18.8566644,2.42556827 C19.1760266,2.71807553 19.6078894,2.83314542 20.0120851,2.73321152 C20.3748718,2.64348984 20.6726134,2.5484797 20.9641254,2.44508092 L20.3572821,4.16985253 L21.13196,4.17039963 C20.985746,4.36552607 20.8103991,4.59913068 20.5995064,4.87923738 Z" id="Shape"></path>
                    </g>
                </g>
            </g>
        </g>
    </g>
</svg>